<svg width="809" height="717" viewBox="0 0 809 717" fill="none" xmlns="http://www.w3.org/2000/svg">
<path d="M529 368.693C529 372.559 525.866 375.693 522 375.693H429.531C425.665 375.693 422.531 378.827 422.531 382.693V473C422.531 476.866 419.397 480 415.531 480H393.469C389.603 480 386.469 476.866 386.469 473V382.693C386.469 378.827 383.335 375.693 379.469 375.693H287C283.134 375.693 280 372.559 280 368.693V348.88C280 345.014 283.134 341.88 287 341.88H379.469C383.335 341.88 386.469 338.746 386.469 334.88V244C386.469 240.134 389.603 237 393.469 237H415.531C419.397 237 422.531 240.134 422.531 244V334.88C422.531 338.746 425.665 341.88 429.531 341.88H522C525.866 341.88 529 345.014 529 348.88V368.693Z" fill="white" fill-opacity="0.6"/>
</svg>
